<?xml version="1.0" encoding="UTF-8" standalone="no"?>
<svg
   xmlns:dc="http://purl.org/dc/elements/1.1/"
   xmlns:cc="http://creativecommons.org/ns#"
   xmlns:rdf="http://www.w3.org/1999/02/22-rdf-syntax-ns#"
   xmlns:svg="http://www.w3.org/2000/svg"
   xmlns="http://www.w3.org/2000/svg"
   xmlns:sodipodi="http://sodipodi.sourceforge.net/DTD/sodipodi-0.dtd"
   xmlns:inkscape="http://www.inkscape.org/namespaces/inkscape"
   version="1.1"
   id="svg28"
   xml:space="preserve"
   width="589.98047"
   height="380.26468"
   viewBox="0 0 589.98047 380.26468"
   sodipodi:docname="newlogo2.svg"
   inkscape:version="1.0.1 (3bc2e813f5, 2020-09-07)"><metadata
     id="metadata34"><rdf:RDF><cc:Work
         rdf:about=""><dc:format>image/svg+xml</dc:format><dc:type
           rdf:resource="http://purl.org/dc/dcmitype/StillImage" /><dc:title></dc:title></cc:Work></rdf:RDF></metadata><defs
     id="defs32"><clipPath
       clipPathUnits="userSpaceOnUse"
       id="clipPath44"><path
         d="M 0,450 H 450 V 0 H 0 Z"
         id="path42" /></clipPath><clipPath
       clipPathUnits="userSpaceOnUse"
       id="clipPath52"><path
         d="M 222.623,331.444 H 366.197 V 132.634 H 222.623 Z"
         id="path50" /></clipPath><linearGradient
       x1="0"
       y1="0"
       x2="1"
       y2="0"
       gradientUnits="userSpaceOnUse"
       gradientTransform="matrix(267.0184,271.03516,271.03516,-267.0184,216.75737,165.92561)"
       spreadMethod="pad"
       id="linearGradient62"><stop
         style="stop-opacity:1;stop-color:#ffffff"
         offset="0"
         id="stop58" /><stop
         style="stop-opacity:1;stop-color:#5091cd"
         offset="1"
         id="stop60" /></linearGradient><clipPath
       clipPathUnits="userSpaceOnUse"
       id="clipPath44-3"><path
         d="M 0,450 H 450 V 0 H 0 Z"
         id="path42-6" /></clipPath><clipPath
       clipPathUnits="userSpaceOnUse"
       id="clipPath52-7"><path
         d="M 222.623,331.444 H 366.197 V 132.634 H 222.623 Z"
         id="path50-5" /></clipPath><linearGradient
       x1="0"
       y1="0"
       x2="1"
       y2="0"
       gradientUnits="userSpaceOnUse"
       gradientTransform="matrix(267.0184,271.03516,271.03516,-267.0184,216.75737,165.92561)"
       spreadMethod="pad"
       id="linearGradient62-3"><stop
         style="stop-opacity:1;stop-color:#ffffff"
         offset="0"
         id="stop58-5" /><stop
         style="stop-opacity:1;stop-color:#5091cd"
         offset="1"
         id="stop60-6" /></linearGradient></defs><sodipodi:namedview
     pagecolor="#ffffff"
     bordercolor="#666666"
     borderopacity="1"
     objecttolerance="10"
     gridtolerance="10"
     guidetolerance="10"
     inkscape:pageopacity="0"
     inkscape:pageshadow="2"
     inkscape:window-width="1373"
     inkscape:window-height="755"
     id="namedview30"
     showgrid="false"
     inkscape:zoom="0.78374771"
     inkscape:cx="328.61729"
     inkscape:cy="171.73121"
     inkscape:window-x="67"
     inkscape:window-y="27"
     inkscape:window-maximized="1"
     inkscape:current-layer="g36"
     inkscape:document-rotation="0" /><g
     id="g36"
     inkscape:groupmode="layer"
     inkscape:label="logo_kék"
     transform="matrix(1.3333333,0,0,-1.3333333,-8.5582798,566.10936)"><g
       id="g38"
       transform="matrix(1.3396653,0,0,1.3396653,-73.762996,-19.441996)"><g
         id="g40"
         clip-path="url(#clipPath44-3)"><g
           id="g46"><g
             id="g48" /><g
             id="g76"><g
               clip-path="url(#clipPath52-7)"
               opacity="0.729996"
               id="g74"><g
                 id="g72"><g
                   id="g70"><g
                     id="g68"><g
                       id="g66"><path
                         d="m 278.485,132.899 c -13.571,1.655 -29.131,11.398 -38.634,22.534 -17.377,20.363 -23.353,54.524 -9.76,90.266 8.164,21.467 2.381,35.291 15.455,60.279 13.069,24.98 57.596,26.898 80.606,24.863 26.126,-2.312 42.495,-80.038 39.744,-102.61 -2.094,-17.186 -17.844,-37.064 -28.257,-47.226 -24.877,-24.276 -32.519,-51.352 -59.154,-48.106"
                         style="fill:url(#linearGradient62-3);stroke:none"
                         id="path64" /></g></g></g></g></g></g></g><g
           id="g78"
           transform="translate(122.6226,271.3989)"><path
             d="m 0,0 c -0.584,0 -0.73,-0.438 -0.432,-1.301 z m -0.87,-3.916 c 0,0 -0.072,0.067 -0.218,0.226 -0.146,0.133 -0.073,0.212 0.218,0.212 -0.291,0.279 -0.51,0.279 -0.65,0 -0.152,-0.292 -0.08,-0.584 0.212,-0.876 0.286,0.292 0.438,0.438 0.438,0.438 m -0.869,1.301 c -0.292,0 -0.438,-0.146 -0.438,-0.425 0.286,0 0.438,0.133 0.438,0.425 M -2.608,0 c -0.87,-0.863 -1.162,-1.593 -0.87,-2.177 0.578,1.155 0.87,1.885 0.87,2.177 m -4.785,-4.354 v -0.862 c 0.578,0 0.578,0.279 0,0.862 m -0.438,-6.955 c -0.292,0 -0.431,-0.145 -0.431,-0.437 0.577,0 0.717,0.146 0.431,0.437 M -8.7,-8.694 c 0,0 0.219,0.359 0.657,1.089 0.431,0.716 0.789,1.221 1.082,1.513 0,0.292 0.218,0.663 0.656,1.088 0.432,0.438 0.505,0.796 0.22,1.088 -0.591,0 -0.876,-0.584 -0.876,-1.738 -0.584,0 -1.016,-0.292 -1.301,-0.863 0,-0.292 0.139,-0.438 0.431,-0.438 -0.292,-0.292 -0.584,-0.292 -0.869,0 l -0.87,-0.876 0.439,-1.739 c 0.285,0.584 0.431,0.876 0.431,0.876 m -3.04,0.438 c -0.292,0 -0.438,-0.079 -0.438,-0.225 0,-0.146 0.146,-0.213 0.438,-0.213 z m -0.876,-5.229 v 0.225 c 0,0.134 0.146,0.213 0.438,0.213 v -0.438 z m -1.301,2.615 h 0.432 c -0.292,0.278 -0.432,0.146 -0.432,-0.439 z m -0.437,-0.439 c -0.292,-0.291 -0.292,-0.584 0,-0.862 z m -2.17,-4.353 0.431,0.876 c 0,-0.292 -0.146,-0.584 -0.431,-0.876 -0.292,-0.292 -0.292,-0.424 0,-0.424 z m 0,-11.733 c 0.577,0.279 0.869,0.863 0.869,1.739 -0.292,0 -0.438,-0.226 -0.438,-0.651 0,-0.437 -0.292,-0.809 -0.869,-1.088 z m -1.308,-5.654 c 0,0 0.146,0.279 0.438,0.862 0.286,0.585 0,0.731 -0.869,0.439 0,-0.292 -0.08,-0.584 -0.219,-0.863 -0.153,-0.306 -0.08,-0.597 0.219,-0.876 0.285,0.279 0.431,0.438 0.431,0.438 m -2.176,-3.477 h 0.869 c 0,0.278 0.073,0.783 0.219,1.513 0.146,0.73 0.066,1.38 -0.219,1.964 -0.292,-0.292 -0.432,-0.65 -0.432,-1.088 0,-0.438 -0.152,-0.81 -0.437,-1.089 0.285,-0.292 0.364,-0.584 0.218,-0.876 -0.146,-0.292 -0.218,-0.584 -0.218,-0.862 z m -0.87,-2.615 v 0.438 c -0.584,0 -0.87,-0.438 -0.87,-1.314 0.578,0.584 0.87,0.876 0.87,0.876 m -0.87,-1.3 c -0.583,0 -0.723,-0.439 -0.43,-1.315 0.285,0.292 0.43,0.73 0.43,1.315 m -0.869,-3.053 c -0.584,0.291 -0.869,0.146 -0.869,-0.425 0,-0.584 0.146,-1.022 0.438,-1.314 z m -2.608,-4.779 -0.438,-0.876 z m -0.869,6.517 c 0,-0.291 -0.073,-0.425 -0.219,-0.425 -0.146,0 -0.219,0.134 -0.219,0.425 z m -1.307,-13.046 c -0.584,0 -0.584,-0.293 0,-0.864 z m 0,4.791 -0.87,-0.438 z m -1.739,1.301 h 0.438 c 0.285,0 0.431,-0.292 0.431,-0.863 h -1.301 c 0.286,0.571 0.432,0.863 0.432,0.863 m -0.432,-5.655 c -0.291,-0.292 -0.437,-1.021 -0.437,-2.177 0.577,1.156 0.723,1.885 0.437,2.177 m 0.432,-6.954 c 0,0 0.066,0.57 0.219,1.738 0.139,1.155 0.359,1.739 0.65,1.739 -0.291,0.279 -0.584,0.279 -0.869,0 -0.292,-0.292 -0.432,-0.584 -0.432,-0.876 0.286,-0.863 0.14,-1.155 -0.437,-0.863 0,-0.292 -0.146,-0.438 -0.432,-0.438 0.578,-0.584 0.717,-1.022 0.432,-1.3 z m -1.301,-2.177 c -0.298,0 -0.438,-0.146 -0.438,-0.438 0.286,-0.292 0.438,-0.147 0.438,0.438 m -0.438,9.57 v -0.876 c -0.292,0 -0.292,0.292 0,0.876 m -3.046,-17.839 -0.431,-0.862 c 0.285,0 0.431,0.278 0.431,0.862 m -1.739,0.876 c 0,-0.292 0.146,-0.438 0.438,-0.438 0,0.291 -0.152,0.438 -0.438,0.438 m 0.438,-8.694 v 0.425 c 0,0.292 0.286,0.584 0.87,0.876 -0.292,0.571 -0.438,1.447 -0.438,2.602 -0.292,-0.292 -0.511,-0.651 -0.651,-1.075 -0.152,-0.439 -0.219,-0.81 -0.219,-1.089 l -0.431,-0.438 c 0,-0.876 0.139,-1.46 0.431,-1.739 0.286,0.279 0.438,0.438 0.438,0.438 m -0.869,10.871 v -0.438 z m -1.307,-2.177 c 0.285,0 0.431,-0.147 0.431,-0.438 z m -1.958,-20.44 c 0.146,0 0.067,0.146 -0.219,0.438 -0.292,0 -0.292,-0.159 0,-0.438 z m -1.519,7.83 v 0.426 l 0.43,-0.426 z m -0.87,4.341 c 0.285,0.292 0.285,0.584 0,0.876 -0.292,-0.292 -0.438,-0.876 -0.438,-1.739 0,0.279 0.146,0.571 0.438,0.863 m -0.87,-1.738 v -0.438 z m -0.656,-8.481 c 0.146,0.145 0.219,0.358 0.219,0.65 0.577,-0.292 0.577,-0.717 0,-1.301 -0.293,0.292 -0.365,0.504 -0.219,0.651 m 0.219,-1.514 c 0,0 -0.153,0.133 -0.439,0.425 l 0.876,-0.425 c 0,-0.292 -0.298,-0.438 -0.876,-0.438 0.286,0.279 0.439,0.438 0.439,0.438 m -0.87,4.991 c 0.577,1.314 0.717,2.11 0.431,2.401 -0.291,-0.584 -0.65,-1.313 -1.081,-2.175 -0.438,-0.876 -0.657,-1.74 -0.657,-2.616 0.285,0.292 0.723,1.089 1.307,2.39 m -1.519,-3.69 c 0.139,0 0.212,0.146 0.212,0.438 -0.292,0 -0.432,-0.16 -0.432,-0.438 z m -0.22,-1.739 -0.438,-0.876 c 0.286,0 0.438,0.292 0.438,0.876 m -0.869,-1.739 v -0.437 c 0.285,0.278 0.285,0.437 0,0.437 m 0.431,-7.392 c 0,0 0.146,0.066 0.438,0.211 0.286,0.147 0.432,0.081 0.432,-0.211 0.285,0.292 0.438,0.716 0.438,1.3 v 1.301 l 0.869,2.614 0.431,0.864 c 0.286,0 0.439,0.292 0.439,0.876 v 0.437 1.301 h 0.869 c 0.286,0.584 0.146,0.876 -0.432,0.876 0,0.571 0.14,1.009 0.432,1.301 0,0.278 0.286,0.438 0.869,0.438 v 0.862 l 0.869,1.74 v 1.313 c 0,0.57 0.286,0.717 0.87,0.425 0,0.292 -0.292,0.729 -0.87,1.313 l 0.87,0.426 c -0.584,0.583 -0.723,1.088 -0.431,1.526 0.285,0.438 0.717,0.651 1.301,0.651 0,0.875 -0.146,1.154 -0.432,0.875 l 0.869,1.739 0.87,1.739 c 0.285,-0.584 0.431,-0.504 0.431,0.212 0,0.73 -0.146,1.235 -0.431,1.527 l 0.869,1.738 0.438,0.876 c 0.285,0.279 0.139,0.57 -0.438,0.863 0.285,0 0.577,0.146 0.869,0.438 0.286,0.279 0.438,0.57 0.438,0.863 -0.584,0.291 -0.656,0.663 -0.219,1.088 0.432,0.438 0.797,0.504 1.089,0.226 0,0.57 0.212,1.154 0.65,1.739 0.438,0.57 0.358,1.008 -0.219,1.301 h 0.87 -0.432 l 0.432,0.876 c 0.285,0.278 0.365,0.65 0.219,1.088 -0.146,0.424 -0.074,0.783 0.218,1.087 l 0.432,0.864 c 0,0.292 0.073,0.65 0.219,1.088 0.146,0.438 0.504,0.796 1.088,1.088 l -0.438,0.863 c 0,0.876 0.146,1.673 0.438,2.402 0.286,0.717 0.577,1.221 0.87,1.514 0,0.292 0.285,1.021 0.869,2.177 l 0.869,0.437 c 0,0.57 0.146,0.862 0.438,0.862 -0.584,0.293 -0.729,0.731 -0.438,1.315 0.286,0.57 0.724,1.009 1.308,1.301 l -0.87,0.437 c 0,0.279 0.14,0.358 0.432,0.213 0.285,-0.147 0.438,-0.066 0.438,0.226 0.285,0.278 0,0.716 -0.87,1.3 0.578,0.863 1.155,0.863 1.739,0 0.285,0 0.359,0.146 0.219,0.438 -0.153,0.279 0.066,0.425 0.65,0.425 -0.292,0 -0.584,0.08 -0.869,0.226 -0.292,0.145 0,0.358 0.869,0.65 -0.292,0 -0.438,0.292 -0.438,0.876 0.578,-0.292 0.87,-0.16 0.87,0.425 -0.292,0.291 -0.432,0.73 -0.432,1.313 0,0.279 0.14,0.279 0.432,0 0.285,0.279 0.438,0.864 0.438,1.74 0.285,0.278 0.723,0.862 1.307,1.738 0.577,0.863 0.87,1.593 0.87,2.177 -0.87,-0.584 -1.023,-0.518 -0.439,0.212 0.578,0.717 1.155,1.367 1.739,1.951 0.577,0 0.577,0.292 0,0.876 v 0.876 c 0,0.863 0.286,1.3 0.87,1.3 0,0.571 0.285,1.156 0.869,1.74 h 0.876 c -0.299,0 -0.438,0.437 -0.438,1.3 0,0.876 0.285,1.805 0.869,2.828 0.577,1.008 1.016,1.234 1.308,0.65 l -0.438,1.738 c 0,0.292 0.218,0.664 0.65,1.089 0.438,0.438 0.657,0.796 0.657,1.088 0.577,-0.584 0.869,-0.438 0.869,0.438 l -0.438,0.876 1.739,2.164 c 0.577,1.738 1.161,3.052 1.745,3.915 1.447,2.322 2.17,3.623 2.17,3.915 -0.291,1.155 -0.869,0.876 -1.738,-0.863 0,-0.291 -0.293,-0.73 -0.87,-1.313 -0.584,-0.293 -1.088,-0.863 -1.52,-1.739 -0.437,-0.863 -0.802,-1.593 -1.088,-2.177 0,-0.584 -0.152,-0.862 -0.438,-0.862 0,-0.292 -0.292,-0.438 -0.869,-0.438 0.285,-1.447 0.146,-1.885 -0.431,-1.301 0,-0.292 -0.153,-0.876 -0.438,-1.739 -0.293,-0.876 -0.146,-1.314 0.438,-1.314 0,-0.292 -0.08,-0.504 -0.22,-0.65 -0.152,-0.146 -0.364,-0.359 -0.65,-0.651 0,0.292 -0.152,0.292 -0.438,0 l -0.869,-0.862 0.438,-1.314 c 0,-0.584 -0.299,-0.584 -0.876,0 l -0.869,-1.739 c -0.584,-0.584 -0.724,-1.022 -0.432,-1.301 -0.292,-0.292 -0.438,-0.73 -0.438,-1.301 -0.584,-0.291 -0.87,-0.583 -0.87,-0.876 l -2.169,-3.915 c -0.591,-2.031 -1.022,-3.185 -1.308,-3.477 l -0.438,-1.301 c 0.578,-0.292 0.578,-0.73 0,-1.314 l -0.431,-0.424 c -1.161,-1.169 -1.739,-2.47 -1.739,-3.916 0,-0.292 -0.438,-1.314 -1.307,-3.053 0,-0.292 -0.219,-0.716 -0.651,-1.3 -0.437,-0.584 -0.364,-1.156 0.219,-1.739 -0.291,0 -0.583,0.146 -0.869,0.438 -0.298,-0.584 -0.438,-1.235 -0.438,-1.964 0,-0.718 -0.292,-1.673 -0.869,-2.827 l -1.307,-1.74 v -3.039 c -0.585,-0.584 -0.87,-1.168 -0.87,-1.738 -0.292,-0.293 -0.365,-0.518 -0.219,-0.65 0.146,-0.16 0.073,-0.372 -0.212,-0.652 -0.584,-0.596 -0.87,-1.021 -0.87,-1.313 l -0.869,-2.177 -0.438,-0.862 v -0.439 l -1.307,-3.915 c 0,-0.293 -0.292,-1.022 -0.869,-2.176 v -1.301 c -0.292,-0.292 -0.432,-0.731 -0.432,-1.301 v -0.876 l -0.869,-0.863 c -0.292,-0.292 -0.372,-0.584 -0.219,-0.876 0.139,-0.292 0.219,-0.584 0.219,-0.863 0,-0.292 -0.219,-0.584 -0.657,-0.875 -0.432,-0.292 -0.212,-0.584 0.657,-0.876 l -1.308,-0.864 c -0.292,-0.292 -0.365,-0.65 -0.219,-1.088 0.146,-0.437 0.219,-0.797 0.219,-1.088 -0.292,-1.155 -0.869,-2.176 -1.738,-3.04 0,-0.584 -0.293,-1.605 -0.87,-3.052 -0.584,-1.447 -0.73,-2.455 -0.438,-3.039 h -0.431 v -0.876 l -0.438,-1.301 -0.432,-0.863 0.432,-0.876 c -0.292,0 -0.584,-0.146 -0.87,-0.438 0.286,0 0.578,-0.213 0.87,-0.65 0.285,-0.439 0,-0.504 -0.87,-0.213 0,-0.291 -0.146,-0.584 -0.431,-0.876 -0.292,-0.278 -0.292,-0.57 0,-0.862 z m -1.3,3.915 -0.438,-0.876 c 0.285,0 0.438,0.292 0.438,0.876 m -0.438,-6.092 c 0,0 0.146,0.292 0.438,0.862 0.285,0.585 0.577,0.439 0.869,-0.425 0.577,0.585 0.431,1.01 -0.438,1.301 v -0.437 c -1.161,-0.571 -1.453,-1.155 -0.869,-1.74 z m -0.869,42.618 c 0.285,-0.584 0.146,-1.022 -0.438,-1.3 0,0.57 0.146,1.008 0.438,1.3 m -1.308,-47.409 v 0.876 c 0,0.584 0.146,1.021 0.438,1.301 0.578,-0.28 0.935,-0.067 1.088,0.65 0.14,0.729 0.067,1.247 -0.218,1.525 0,-0.57 -0.153,-1.088 -0.438,-1.525 -0.292,-0.426 -0.584,-0.797 -0.87,-1.089 0,-0.278 -0.146,-0.57 -0.431,-0.862 -0.292,-0.292 -0.292,-0.584 0,-0.876 z m -2.827,64.159 c -0.146,0.133 -0.212,0.358 -0.212,0.651 v -1.301 c 0.285,0.279 0.358,0.491 0.212,0.65 m -0.212,3.69 c -0.292,-0.292 -0.292,-0.584 0,-0.862 z m 0,2.177 c -0.292,-0.292 -0.292,-0.438 0,-0.438 z m 0,-1.301 c 0,0.279 -0.08,0.358 -0.219,0.213 -0.153,-0.147 -0.22,-0.372 -0.22,-0.651 0.286,0 0.439,0.146 0.439,0.438 m -0.439,2.601 c 0.286,-0.292 0.286,-0.424 0,-0.424 l 0.439,-0.438 z m -0.431,0.876 c 0,-0.292 0.139,-0.438 0.431,-0.438 z m 0.431,6.955 c 0,0 -0.146,-0.146 -0.431,-0.438 l 0.431,-0.862 c 0,-0.293 -0.072,-0.372 -0.218,-0.226 -0.146,0.146 -0.213,0.08 -0.213,-0.213 0.285,0 0.431,0.146 0.431,0.439 v -1.301 z m 0,-37.84 -0.431,1.315 c 0,0.57 0.139,1.22 0.431,1.95 0.286,0.717 0.439,1.381 0.439,1.965 -0.292,1.738 -0.292,3.318 0,4.778 0,0.584 0.066,1.301 0.212,2.177 0.146,0.862 0.073,1.884 -0.212,3.039 0.285,0.584 0.431,1.446 0.431,2.614 0,1.155 -0.146,2.018 -0.431,2.602 -0.292,-0.292 -0.439,-1.155 -0.439,-2.602 l -0.431,-2.614 c 0,-2.322 -0.152,-4.208 -0.438,-5.655 0,-0.583 -0.073,-1.3 -0.218,-2.176 -0.146,-0.863 -0.074,-1.593 0.218,-2.163 0.577,-0.584 0.723,-1.168 0.438,-1.74 -0.292,-0.596 -0.438,-0.596 -0.438,0 l -0.431,-2.175 c 0,-0.293 0.067,-0.519 0.213,-0.651 0.145,-0.16 0.364,-0.372 0.656,-0.664 z m -1.3,39.579 v -0.863 c 0.285,0.571 0.285,0.863 0,0.863 m 0,-50.011 c 0,-0.584 -0.153,-0.876 -0.438,-0.876 z m -0.438,5.654 c 0,0 0.285,0.57 0.869,1.739 0,-1.739 -0.146,-2.907 -0.431,-3.477 -0.299,1.154 -0.438,1.738 -0.438,1.738 m 0,-7.393 v -0.876 c -0.584,0.584 -0.584,0.876 0,0.876 m -0.438,3.039 c 0,0 0.146,0.292 0.438,0.876 v -0.876 z m -0.432,-9.994 c 0.286,-0.292 0.286,-0.437 0,-0.437 z m 0.432,3.478 c 0,-0.292 -0.146,-0.439 -0.432,-0.439 0,0.28 0.14,0.439 0.432,0.439 m -0.432,24.78 c -0.584,0 -0.584,-0.293 0,-0.863 z m -0.218,-37.177 c -0.147,0.146 -0.22,0.359 -0.22,0.651 0,-0.292 -0.072,-0.505 -0.212,-0.651 -0.152,-0.146 -0.079,-0.372 0.212,-0.65 0.286,0.278 0.366,0.504 0.22,0.65 m -0.432,22.179 c -0.152,0.145 -0.219,0.357 -0.219,0.65 -0.292,-0.293 -0.292,-0.73 0,-1.3 0.285,0.278 0.359,0.503 0.219,0.65 m -0.657,17.612 v -0.437 z m 0,-39.14 c 0,0 0.073,0.358 0.219,1.088 0.147,0.716 0.504,0.796 1.088,0.212 v 3.053 c 0,0.862 0.14,1.738 0.432,2.602 0.285,0.876 0.438,1.738 0.438,2.614 -0.87,-0.584 -1.162,-0.584 -0.87,0 0.286,0.57 0.578,1.009 0.87,1.301 v 1.301 c 0,1.459 0.285,3.052 0.869,4.791 0,0.571 0.219,2.243 0.651,5.003 0.438,2.748 0.218,4.274 -0.651,4.567 0.286,-0.293 0.286,-0.585 0,-0.876 -0.292,-0.293 -0.431,-0.585 -0.431,-0.863 -0.591,-0.584 -0.803,-1.235 -0.657,-1.964 0.146,-0.717 0.219,-1.235 0.219,-1.514 -0.87,-2.906 -1.022,-4.645 -0.438,-5.229 -0.584,-1.447 -0.87,-3.039 -0.87,-4.779 v -3.476 c -0.869,-4.354 -1.161,-7.116 -0.869,-8.27 z m -0.869,10.87 c 0,-0.864 0.146,-1.448 0.438,-1.739 z m 0.438,-2.602 c -0.584,-0.292 -0.73,-0.729 -0.438,-1.313 0,0.584 0.146,1.021 0.438,1.313 m -0.869,15.649 c 0,0.292 0.139,0.438 0.431,0.438 l -0.431,-0.876 z m -0.438,-2.177 h 0.438 l -0.438,-0.862 z m -0.87,-10.87 c 0,-1.155 -0.146,-2.177 -0.431,-3.039 0,1.154 0.139,2.175 0.431,3.039 m -0.431,0.876 c 0,0 0.139,0.133 0.431,0.425 v -0.864 c -0.292,0.28 -0.431,0.439 -0.431,0.439 m -0.876,-26.533 c -0.286,-0.583 -0.286,-0.875 0,-0.875 z m 0.438,16.087 c 0,0.292 -0.067,1.022 -0.219,2.177 -0.14,1.154 0.073,2.03 0.657,2.614 l -0.438,-5.215 c 0,-2.908 -0.438,-4.646 -1.307,-5.23 z m -1.52,-8.906 c -0.146,1.301 0.073,2.098 0.651,2.389 0.292,-0.876 0.364,-1.964 0.218,-3.265 -0.146,-1.301 -0.364,-1.805 -0.656,-1.526 0,0.292 -0.067,1.088 -0.213,2.402 m 8.481,-18.927 c 0,0 -0.438,0.438 -1.307,1.301 -1.739,0.584 -2.9,1.168 -3.477,1.752 -0.292,0.292 -1.022,1.155 -2.177,2.602 -0.869,1.168 -1.447,2.827 -1.739,5.004 -0.286,2.175 -0.146,3.981 0.432,5.441 0.292,-0.584 0.438,-1.313 0.438,-2.177 0.292,0.584 0.431,1.593 0.431,3.039 0,1.461 0.153,2.762 0.438,3.916 v 1.301 c 0,1.154 0.285,2.894 0.869,5.23 0,1.446 0.067,3.397 0.219,5.866 0.139,2.455 0.505,5.282 1.089,8.481 0,3.186 0.139,5.933 0.431,8.256 0.285,2.322 0.577,4.354 0.869,6.092 0,3.477 0.146,5.946 0.438,7.392 0,0.584 -0.072,1.593 -0.219,3.053 -0.146,1.447 0.067,2.602 0.65,3.478 -0.291,0 -0.503,0.145 -0.65,0.438 -0.146,0.279 -0.219,0.571 -0.219,0.863 0.578,0.292 0.869,0.942 0.869,1.964 v 1.951 c -0.291,0.584 -0.431,1.301 -0.431,2.177 l 0.431,0.437 v 1.301 c 0,0.571 0.073,1.234 0.22,1.951 0.146,0.73 0.066,1.527 -0.22,2.403 l -0.431,5.215 c 0,1.74 -0.152,3.186 -0.438,4.341 v 5.229 c -0.292,1.155 -0.431,2.748 -0.431,4.779 0,2.03 -0.153,3.623 -0.438,4.791 -0.292,0.571 -0.584,1.221 -0.869,1.951 -0.292,0.717 -0.432,1.659 -0.432,2.827 v 1.964 c 0,1.009 0.578,1.367 1.739,1.075 l 1.3,-0.424 c 0.578,0.278 1.308,0.424 2.177,0.424 0.286,-0.292 1.016,-0.65 2.177,-1.075 1.155,-0.438 1.878,-0.809 2.17,-1.088 0.286,-0.584 0.146,-1.168 -0.431,-1.739 -0.584,-0.597 -0.87,-1.021 -0.87,-1.314 v -0.863 c 0,-0.876 0.286,-2.176 0.87,-3.915 0.285,-1.168 0.431,-2.681 0.431,-4.566 0,-1.898 0.146,-3.411 0.438,-4.565 0,-0.876 0.14,-1.46 0.432,-1.739 l -0.432,-2.615 c 0.578,-2.322 0.87,-4.207 0.87,-5.654 l 0.438,-6.954 c 0,-1.74 -0.153,-3.053 -0.438,-3.916 0,0.278 0.146,0.438 0.438,0.438 v -0.876 c 0,-0.876 -0.153,-1.672 -0.438,-2.389 -0.292,-0.731 -0.438,-1.526 -0.438,-2.389 0.285,0 0.584,-0.293 0.876,-0.876 l -0.438,-0.877 -0.438,-2.6 c 0.584,0 0.723,-0.08 0.438,-0.226 -0.292,-0.146 -0.438,-0.358 -0.438,-0.65 0.285,-0.584 0.285,-1.448 0,-2.602 -0.292,-1.168 -0.432,-3.053 -0.432,-5.654 0.285,0.278 0.505,0.212 0.651,-0.226 0.145,-0.424 0.066,-0.797 -0.219,-1.089 0,-0.292 -0.074,-0.503 -0.213,-0.649 -0.153,-0.146 -0.219,-0.359 -0.219,-0.65 l 0.432,-0.864 v -1.738 -1.752 c 0,-1.447 -0.147,-2.456 -0.432,-3.04 -0.292,-1.154 -0.365,-2.243 -0.219,-3.265 0.146,-1.008 0.067,-1.951 -0.219,-2.827 0,-0.584 -0.146,-1.009 -0.431,-1.3 l -0.438,-1.301 c -0.292,-0.292 -0.292,-0.731 0,-1.314 0.285,-0.585 0.438,-1.155 0.438,-1.739 l -0.87,0.438 v -2.176 c 0.286,0 0.432,-0.213 0.432,-0.651 0,-0.438 -0.146,-0.797 -0.432,-1.089 0,-0.584 -0.292,-0.862 -0.869,-0.862 l 0.869,-0.876 c -0.292,-0.292 -0.371,-0.65 -0.219,-1.089 0.146,-0.437 0.219,-0.796 0.219,-1.088 0,-0.292 -0.292,-0.716 -0.869,-1.3 0,-0.292 0.14,-0.439 0.432,-0.439 0.285,0 0.437,-0.437 0.437,-1.301 l -0.869,-2.176 c -0.584,-1.739 -0.438,-3.478 0.432,-5.216 0.285,0.862 0.723,1.593 1.307,2.177 0.577,0.584 1.009,1.154 1.301,1.738 0.584,-0.291 0.876,-0.584 0.876,-0.876 0,0.876 -0.292,1.447 -0.876,1.739 0.285,0.292 0.438,0.651 0.438,1.088 0,0.438 0.146,0.797 0.438,1.089 l 1.3,3.477 0.869,3.478 1.308,3.49 c 0.577,2.602 1.228,4.991 1.958,7.167 0.716,2.177 1.373,3.983 1.958,5.443 0.285,0 0.43,-0.292 0.43,-0.876 0,-0.864 -0.145,-1.593 -0.43,-2.177 -0.293,-0.584 -0.439,-1.155 -0.439,-1.739 0.286,0.292 0.439,0.796 0.439,1.526 0,0.717 0.139,1.381 0.43,1.965 l 0.87,1.301 c 0,0.57 0.146,1.007 0.438,1.3 l 0.869,3.053 1.739,5.216 c 0.285,0.278 0.651,0.929 1.088,1.951 0.432,1.008 0.505,1.805 0.219,2.389 -0.292,-0.584 -0.656,-1.301 -1.088,-2.163 -0.438,-0.876 -0.657,-1.74 -0.657,-2.615 l -0.869,-2.176 -0.869,-3.478 c -0.292,-0.293 -0.651,-0.942 -1.089,-1.951 -0.431,-1.023 -0.651,-1.089 -0.651,-0.226 0,0.291 0.147,0.717 0.439,1.301 0.285,0.583 0.431,1.154 0.431,1.752 l 0.87,2.602 c 0.577,1.446 1.154,2.972 1.738,4.565 0.584,1.593 1.161,3.119 1.745,4.565 1.155,2.032 1.878,4.062 2.171,6.093 0.285,0.583 0.657,1.592 1.088,3.039 0.438,1.447 1.088,2.615 1.958,3.491 0.285,-0.584 0,-1.606 -0.87,-3.053 -0.584,-2.03 -1.161,-3.331 -1.739,-3.915 -0.292,-1.738 -0.73,-3.186 -1.307,-4.34 -0.584,-1.169 -1.015,-2.177 -1.301,-3.053 0.87,0.292 1.447,1.008 1.739,2.177 0.285,1.154 0.577,2.03 0.869,2.614 0.578,1.739 1.301,3.623 2.177,5.655 0.578,1.738 1.155,3.755 1.739,6.078 l 2.608,4.792 c 1.155,3.756 2.462,6.809 3.916,9.131 1.154,3.186 2.023,5.07 2.607,5.654 0.578,0.571 1.089,1.447 1.52,2.615 0.438,1.155 0.796,2.018 1.089,2.602 -0.293,-0.292 -0.651,-0.797 -1.089,-1.527 -0.431,-0.717 -0.803,-1.234 -1.088,-1.513 l -1.301,-3.477 c -0.584,-0.876 -1.162,-1.898 -1.738,-3.053 -0.585,-1.155 -1.308,-2.602 -2.177,-4.34 l -0.87,-2.615 c -0.584,-0.876 -1.161,-2.177 -1.738,-3.915 l -1.308,-3.478 c -0.291,-0.292 -0.511,-0.809 -0.65,-1.526 -0.153,-0.73 -0.365,-1.234 -0.651,-1.513 -0.291,0 -0.437,0.279 -0.437,0.862 0,0.584 0.577,2.031 1.738,4.354 l 2.177,5.216 4.785,10.432 c 0.577,1.447 1.373,3.053 2.389,4.792 1.015,1.739 2.104,3.756 3.265,6.092 l 1.301,2.164 c 0.577,0.584 1.154,1.446 1.738,2.614 0.584,0.584 1.161,1.447 1.745,2.615 0.578,1.154 1.447,2.309 2.609,3.477 -0.584,0.279 -0.511,0.717 0.219,1.301 0.716,0.584 1.228,1.009 1.52,1.3 1.446,2.031 2.753,3.054 3.915,3.054 0.577,0.278 1.154,0.357 1.738,0.212 C -0.292,4.42 0.286,4.061 0.869,3.477 1.447,2.894 1.592,2.323 1.307,1.739 L 0.869,1.3 V 0.876 C 0.577,0.584 0.577,0.438 0.869,0.438 L 1.307,-0.438 0.869,-0.863 c 0,-0.292 -0.292,-0.73 -0.869,-1.314 -0.292,-0.584 -0.146,-1.155 0.438,-1.739 -0.292,-0.292 -0.584,-0.65 -0.87,-1.088 -0.298,-0.425 -0.59,-0.942 -0.876,-1.513 -1.453,-1.46 -2.9,-3.345 -4.346,-5.654 -1.454,-1.739 -2.973,-4.141 -4.566,-7.181 -1.599,-3.039 -2.98,-5.587 -4.134,-7.618 l -3.478,-8.256 c -0.584,-1.738 -1.739,-4.353 -3.477,-7.831 -0.869,-1.738 -1.526,-3.477 -1.958,-5.216 -0.438,-1.738 -0.942,-3.345 -1.526,-4.791 l -1.739,-2.602 -0.869,-4.353 c -0.292,-0.584 -0.87,-1.885 -1.739,-3.915 -0.869,-2.031 -1.453,-3.915 -1.739,-5.654 l -1.307,-3.915 -0.432,-0.864 c 0,-0.584 -0.152,-0.876 -0.437,-0.876 l -0.432,-1.3 c -0.292,0 -0.292,-0.146 0,-0.438 v -0.863 c -0.584,-1.168 -1.088,-2.614 -1.526,-4.354 -0.432,-1.738 -0.797,-3.198 -1.082,-4.352 l -1.745,-3.478 c 0,-1.739 -0.146,-3.04 -0.432,-3.916 -1.161,-3.477 -1.891,-6.224 -2.177,-8.256 l -2.607,-8.706 c -0.293,-0.571 -0.87,-1.805 -1.739,-3.69 -0.87,-1.884 -1.892,-3.41 -3.046,-4.566 -0.869,-0.292 -1.599,-0.292 -2.177,0 l -2.608,-0.438 c -0.87,-0.291 -1.301,-0.438 -1.301,-0.438"
             style="fill:#616466;fill-opacity:1;fill-rule:nonzero;stroke:none"
             id="path80" /></g><g
           id="g82"
           transform="translate(190.5996,214.5596)"><path
             d="m 0,0 h -0.41 z m -0.41,0 v -0.41 z m -0.41,-6.92 c 0,0 0.137,0.124 0.41,0.398 0.267,-0.274 0.267,-0.546 0,-0.808 -0.273,0.262 -0.41,0.41 -0.41,0.41 m 0,8.547 c 0.267,0 0.267,-0.149 0,-0.41 z m 0,0.397 c 0.267,0 0.267,-0.136 0,-0.397 z M 0.813,4.472 C 1.081,5.019 1.689,5.825 2.64,6.919 3.59,7.999 4.199,8.546 4.472,8.546 4.739,7.999 4.404,7.316 3.459,6.509 2.503,5.688 1.895,5.143 1.627,4.881 L 0.404,2.845 -0.82,2.024 C -1.093,2.024 -1.428,1.688 -1.832,1.019 -2.242,0.335 -2.72,0 -3.261,0 c 0.267,0.534 1.628,2.024 4.074,4.472 m -3.26,-15.466 c -0.547,-0.82 -0.95,-1.366 -1.218,-1.627 z m -1.627,-1.627 h 0.409 v -0.41 z m -1.423,7.527 c 0.131,0.137 0.205,0.063 0.205,-0.198 l -0.41,-0.41 c 0,0.261 0.063,0.472 0.205,0.608 m -0.409,-8.745 c -0.137,0 -0.205,0.124 -0.205,0.398 0.267,0 0.409,-0.137 0.409,-0.398 z m 2.241,13.019 c -0.273,-0.547 -1.223,-1.627 -2.85,-3.255 -0.814,-1.627 -1.628,-2.311 -2.442,-2.037 2.442,3.8 4.206,5.565 5.292,5.292 m -4.887,-7.727 -0.405,-0.82 c -0.272,0.261 -0.142,0.534 0.405,0.82 m -1.218,-9.776 c 0,0 0.062,0.062 0.199,0.198 0.136,0.138 0.205,0.349 0.205,0.622 v 0.808 l -0.814,-1.218 c 0.267,-0.274 0.41,-0.41 0.41,-0.41 m -1.224,7.739 c 0,-0.82 -0.403,-1.23 -1.223,-1.23 0.82,0.82 1.223,1.23 1.223,1.23 m -7.328,-7.329 c 0,-0.274 -0.069,-0.41 -0.199,-0.41 -0.144,0 -0.348,0.136 -0.615,0.41 z m -1.218,-0.82 -0.814,-1.218 c 0,0.273 0.268,0.672 0.814,1.218 m -0.814,-13.839 h -0.813 c 0.267,0.273 0.54,0.273 0.813,0 m -0.813,12.212 c -0.273,-0.547 -0.684,-0.808 -1.224,-0.808 0.267,0.534 0.677,0.808 1.224,0.808 m -2.038,-0.808 c 0.268,-0.547 0.131,-0.956 -0.409,-1.229 0,0.545 0.136,0.956 0.409,1.229 m -0.813,-13.44 v -0.399 z m -0.814,15.067 c 0,0 1.218,0.671 3.665,2.038 0.813,1.08 2.298,2.435 4.478,4.062 1.354,1.627 2.845,3.118 4.472,4.484 0.267,0.534 0.95,1.081 2.037,1.627 0,0.262 0.137,0.534 0.41,0.808 0.267,0.273 0.541,0.41 0.813,0.41 -1.9,-2.721 -3.124,-4.211 -3.664,-4.472 -0.546,-0.273 -1.36,-0.957 -2.441,-2.037 -0.546,-0.274 -1.36,-0.957 -2.447,-2.038 l -2.031,-2.446 -1.627,-1.218 c 0,-0.547 -0.144,-0.808 -0.411,-0.808 -0.273,-0.273 -0.608,-0.41 -1.018,-0.41 -0.404,0 -0.751,-0.137 -1.018,-0.41 -0.547,-0.82 -0.951,-1.217 -1.218,-1.217 -0.273,-0.273 -0.683,-0.41 -1.224,-0.41 0.814,1.354 1.224,2.037 1.224,2.037 m -4.074,-4.074 c 0.82,0.547 1.49,1.218 2.037,2.037 0.267,-0.546 0.137,-1.093 -0.404,-1.627 -0.546,-0.547 -1.093,-0.82 -1.633,-0.82 z M -39.08,-41.118 c 0.267,0 0.54,0.137 0.813,0.41 l -0.813,0.409 c 0,-0.272 -0.137,-0.409 -0.404,-0.409 -0.279,0 -0.41,-0.137 -0.41,-0.41 z m -11.801,55.366 c 2.441,2.708 4.198,4.608 5.285,5.689 4.615,5.155 7.596,10.174 8.957,15.068 0.267,1.081 0.267,1.827 0,2.236 -0.274,0.41 -0.677,0.336 -1.217,-0.198 h -0.411 c -2.173,-1.64 -3.664,-2.994 -4.478,-4.075 -3.255,-3.255 -5.695,-5.975 -7.322,-8.149 -1.367,-1.627 -3.125,-4.335 -5.292,-8.137 -0.547,-1.08 -1.088,-2.434 -1.634,-4.074 -0.274,-0.546 -0.472,-1.279 -0.609,-2.236 -0.136,-0.957 -0.341,-1.689 -0.608,-2.235 2.44,1.353 4.881,3.39 7.329,6.111 m -24.832,-32.981 c -0.541,-0.546 -0.677,-1.08 -0.41,-1.627 0,0.819 0.143,1.353 0.41,1.627 m 14.248,-29.714 c 0,0 -1.497,0.957 -4.478,2.857 l -4.075,3.255 c -0.54,0.533 -0.814,0.943 -0.814,1.217 l -2.031,2.447 c -0.54,0.534 -0.95,1.354 -1.223,2.435 -0.267,1.081 -0.54,1.901 -0.813,2.447 -0.814,1.354 -1.628,3.255 -2.442,5.702 -0.267,1.627 -0.409,3.789 -0.409,6.509 0,3.528 0.273,6.236 0.813,8.137 0.814,3.8 1.36,6.111 1.627,6.919 1.087,5.975 3.534,12.347 7.33,19.13 2.167,3.801 5.422,8.684 9.77,14.658 0.54,0.82 0.943,1.218 1.217,1.218 l 2.447,3.267 c 1.628,2.162 2.708,3.515 3.255,4.062 l 4.881,4.882 c 1.902,1.354 3.665,2.037 5.292,2.037 0.541,0.273 1.355,0.41 2.448,0.41 3.522,-0.547 6.106,-1.764 7.733,-3.664 1.081,-1.081 1.627,-2.038 1.627,-2.845 v -1.23 c 0,-1.628 -0.143,-2.844 -0.41,-3.652 l -1.628,-4.075 c -0.546,-1.093 -1.422,-2.993 -2.646,-5.701 -1.216,-2.721 -2.508,-5.019 -3.862,-6.92 C -40.577,10.981 -43.292,7.59 -46,4.881 c -2.173,-2.72 -5.434,-5.428 -9.77,-8.149 l -5.291,-3.254 c -0.547,-0.274 -1.292,-0.472 -2.236,-0.609 -0.957,-0.137 -1.566,-0.472 -1.832,-1.018 -0.547,-0.547 -1.224,-2.435 -2.038,-5.69 -0.273,-0.82 -0.609,-1.702 -1.019,-2.646 -0.403,-0.956 -0.608,-1.838 -0.608,-2.646 0,-1.366 -0.137,-2.795 -0.41,-4.285 -0.267,-1.491 -0.404,-2.92 -0.404,-4.273 0,-0.808 0.274,-2.299 0.814,-4.473 0.273,-1.627 0.814,-3.117 1.627,-4.472 0.541,-1.093 1.224,-1.839 2.038,-2.248 0.813,-0.397 1.354,-0.609 1.627,-0.609 h 0.403 c 2.448,-0.546 4.342,-0.546 5.703,0 3.254,0 6.782,0.944 10.583,2.857 2.981,1.627 6.105,3.516 9.36,5.69 l 4.075,3.665 c 0.54,0.273 1.149,0.745 1.826,1.427 0.677,0.671 1.285,1.02 1.832,1.02 0.267,0 0.541,-0.075 0.814,-0.212 0.267,-0.137 0.54,0.074 0.82,0.621 h 0.403 c 0.814,0 1.894,0.671 3.255,2.026 0.267,-0.547 0.205,-0.945 -0.199,-1.218 -0.41,-0.274 -0.751,-0.547 -1.019,-0.808 0.268,-0.547 2.572,1.007 6.919,4.671 4.336,3.665 7.597,6.584 9.77,8.758 0.814,0.261 1.354,0.807 1.628,1.627 0.54,0.534 0.814,0.944 0.814,1.218 0.54,0 0.813,0.136 0.813,0.41 1.354,0.819 2.851,2.447 4.478,4.882 0.267,0.545 0.671,1.08 1.224,1.627 0.541,0.546 1.081,1.354 1.627,2.447 l 2.032,2.845 c 0,0.273 0.136,0.819 0.41,1.626 0.266,0.821 0.54,1.355 0.813,1.628 C 5.149,7.043 5.286,6.509 5.286,5.688 5.286,4.335 4.199,2.161 2.031,-0.82 l -3.255,-3.664 c -1.36,-1.355 -1.9,-2.436 -1.627,-3.255 0.267,0 0.336,0.061 0.205,0.198 -0.143,0.137 -0.074,0.349 0.199,0.621 1.081,0 1.354,-0.41 0.814,-1.229 -0.274,-0.547 -0.678,-1.081 -1.218,-1.627 -0.546,-0.547 -0.683,-1.081 -0.41,-1.628 -0.546,0.273 -1.018,0 -1.422,-0.807 -0.41,-0.82 -0.752,-1.23 -1.019,-1.23 v 0.82 l -0.409,-0.82 c -1.087,-1.081 -1.764,-2.038 -2.032,-2.845 0.268,0 0.609,0.137 1.019,0.41 0.404,0.261 0.739,0.534 1.013,0.808 0,-0.547 -0.138,-0.957 -0.404,-1.218 -0.274,-0.274 -0.547,-0.547 -0.814,-0.819 -0.546,-0.547 -1.087,-1.355 -1.628,-2.436 l -4.887,-4.882 -4.478,-4.074 c -0.274,-0.274 -0.609,-0.608 -1.013,-1.019 -0.41,-0.41 -0.615,-0.745 -0.615,-1.018 0,-0.274 0.062,-0.473 0.205,-0.609 0.137,-0.137 -0.068,-0.348 -0.609,-0.609 v 0.41 c 0,0.261 -0.143,0.398 -0.41,0.398 -0.273,0 -1.087,-0.684 -2.441,-2.037 -1.627,-1.627 -2.714,-2.982 -3.254,-4.063 0,0.261 -0.273,0.261 -0.814,0 -0.813,0 -1.224,-0.409 -1.224,-1.229 h -0.813 c -0.273,0 -0.273,-0.062 0,-0.2 0.267,-0.135 0.267,-0.347 0,-0.608 -0.273,-0.273 -0.546,-0.348 -0.814,-0.198 -0.273,0.124 -0.546,0.198 -0.813,0.198 l -2.441,-1.627 c 0,-0.273 0.062,-0.547 0.198,-0.82 0.137,-0.274 0.069,-0.398 -0.198,-0.398 0.54,-0.546 0.403,-0.819 -0.411,-0.819 -0.273,-0.274 -0.546,-0.274 -0.813,0 h -1.627 l -1.627,-1.628 h 0.813 c -0.546,-0.546 -1.292,-0.944 -2.242,-1.217 -0.95,-0.273 -1.566,-0.41 -1.833,-0.41 -2.174,-1.081 -3.8,-1.764 -4.882,-2.037 -4.067,-0.82 -7.602,-1.081 -10.583,-0.82 -3.254,0.273 -4.882,0.41 -4.882,0.41"
             style="fill:#616466;fill-opacity:1;fill-rule:nonzero;stroke:none"
             id="path84" /></g><g
           id="g86"
           transform="translate(301.3643,241.3892)"><path
             d="M 0,0 C 0,0 0.285,0.146 0.87,0.438 L 0.438,-0.437 C 0.146,-0.146 0,0 0,0 m 0.438,2.615 v 1.301 l 0.87,0.876 V 2.615 C 1.308,1.447 0.87,1.155 0,1.739 0.285,2.323 0.438,2.615 0.438,2.615 m -1.526,0.863 c 0.147,0 0.073,0.146 -0.213,0.438 -0.291,0 -0.291,-0.146 0,-0.438 z m -0.65,-9.57 c 0,0.292 0.066,0.359 0.218,0.226 0.14,-0.159 0.219,-0.372 0.219,-0.651 z m 0.437,2.615 c 0,-0.292 -0.152,-0.73 -0.437,-1.301 -0.292,-0.584 -0.292,-1.022 0,-1.314 l 0.437,-0.425 c 0.578,1.447 0.578,2.456 0,3.04 M -2.607,0 -3.046,-1.301 c 0.577,0.28 0.724,0.718 0.439,1.301 m -0.87,-8.693 c -0.292,0 -0.292,-0.16 0,-0.438 z m -0.438,-1.314 c -0.292,0 -0.432,-0.146 -0.432,-0.425 0.285,-0.292 0.432,-0.159 0.432,0.425 m -0.65,-3.69 c 0.146,0.438 0.358,0.504 0.65,0.213 0,0.876 -0.147,1.446 -0.432,1.738 l -0.869,-2.602 c 0.285,0 0.504,0.213 0.651,0.651 m -1.52,-6.53 c 0.285,0.729 0.432,1.234 0.432,1.526 -0.292,0 -0.512,-0.292 -0.651,-0.862 -0.153,-0.585 -0.365,-1.022 -0.65,-1.314 0.285,-0.292 0.577,-0.067 0.869,0.65 m -0.869,0.226 -0.87,-0.876 c 0,0 0.286,0.292 0.87,0.876 m -0.439,6.092 0.87,1.738 c 0,0.279 0.219,0.863 0.65,1.739 0.438,0.863 0.505,1.579 0.22,2.177 -0.292,-0.598 -0.585,-1.381 -0.87,-2.402 -0.292,-1.023 -0.723,-1.673 -1.301,-1.951 l 0.431,-0.876 v -1.301 z m -0.869,-4.792 c 0,0 -0.292,0.292 -0.869,0.876 -0.292,-0.292 -0.292,-0.584 0,-0.876 z m -1.307,-7.392 c -0.292,-0.293 -0.292,-0.439 0,-0.439 z m -0.432,-2.177 -0.869,-0.438 c 0.578,0 0.869,0.146 0.869,0.438 m -1.307,5.216 c -0.292,-0.292 -0.51,-0.717 -0.65,-1.301 -0.153,-0.584 -0.365,-1.021 -0.65,-1.301 1.154,1.156 1.586,2.018 1.3,2.602 m -3.046,-16.962 c 0,0 0.365,1.233 1.088,3.703 0.724,2.455 1.527,3.981 2.396,4.565 -0.292,0.292 -0.73,-0.146 -1.308,-1.3 -0.584,-1.168 -0.869,-2.032 -0.869,-2.615 -0.584,-0.585 -0.869,-1.3 -0.869,-2.176 -0.292,-0.585 -0.584,-1.089 -0.869,-1.514 -0.292,-0.438 -0.439,-0.956 -0.439,-1.526 0.578,0.57 0.87,0.863 0.87,0.863 m -1.3,6.53 c -0.584,-0.585 -0.731,-1.022 -0.439,-1.301 0.285,0.279 0.439,0.716 0.439,1.301 m -1.958,-12.835 c 0.139,0.146 0.066,0.226 -0.219,0.226 v -0.439 c 0,0 0.066,0.067 0.219,0.213 m -2.39,-5.004 c -0.298,-0.292 -0.437,-0.863 -0.437,-1.738 0.285,0.291 0.437,0.875 0.437,1.738 m -3.483,-0.213 c 0,0.147 -0.147,0.213 -0.432,0.213 v -0.425 c 0.285,0 0.432,0.067 0.432,0.212 m -0.432,-2.388 v 0.863 l -0.869,-0.863 z m -0.869,-1.739 c -0.292,0 -0.73,-0.438 -1.308,-1.3 0.578,0.278 1.016,0.715 1.308,1.3 m -1.308,-1.739 c -0.292,0 -0.292,-0.159 0,-0.437 0.285,0.278 0.285,0.437 0,0.437 m -0.437,-1.526 c 0,0.146 0.145,0.213 0.437,0.213 -0.292,0 -0.437,-0.147 -0.437,-0.425 z m -0.432,-9.782 c -0.292,0 -0.292,-0.146 0,-0.438 z m -3.477,-1.314 c -0.292,0.584 -0.584,0.73 -0.87,0.438 0.286,-0.279 0.286,-0.571 0,-0.863 -0.292,-0.292 -0.438,-0.584 -0.438,-0.876 z m -8.701,-21.741 v 0.438 c -0.292,0 -0.438,-0.145 -0.438,-0.438 z m -13.916,-9.131 c 0,0.584 -0.152,0.862 -0.438,0.862 l -0.431,-0.424 -0.438,-1.739 z m -10.439,49.573 0.432,-0.425 c 0.285,0.279 0.145,0.425 -0.432,0.425 m -0.869,-6.955 c 0,-0.584 0.139,-1.022 0.431,-1.301 0.286,0.572 0.146,1.009 -0.431,1.301 m -0.869,19.577 c -0.292,-0.292 -0.439,-0.292 -0.439,0 z m -0.439,3.916 c 0,0 -0.145,0.132 -0.431,0.424 l 0.87,0.877 c -0.87,-0.585 -1.022,-1.886 -0.439,-3.916 z m 0.439,-3.916 h -0.439 c -0.292,0.279 -0.511,0.279 -0.649,0 -0.154,-0.292 -0.074,-0.584 0.218,-0.876 0,0.292 0.286,0.584 0.87,0.876 m -1.308,-3.052 v 0.876 l -0.431,-3.039 c 0.285,0.57 0.431,1.3 0.431,2.163 m -1.738,-12.609 c -0.869,-0.293 -1.023,-1.022 -0.439,-2.177 v -0.424 c 0,1.154 0.147,2.016 0.439,2.601 m -0.869,-5.217 c 0,0.279 0.138,0.572 0.43,0.864 v -0.425 c -0.292,-0.584 -0.43,-0.731 -0.43,-0.439 m -0.439,-2.614 c 0.285,0.876 0.577,1.885 0.869,3.053 v 0.425 c -0.584,-0.864 -1.081,-2.032 -1.519,-3.478 -0.432,-1.447 -0.511,-2.469 -0.219,-3.04 0.285,1.155 0.577,2.177 0.869,3.04 m -0.869,-3.477 c -0.292,-0.292 -0.505,-0.731 -0.65,-1.301 -0.147,-0.584 -0.074,-1.023 0.218,-1.301 0.577,1.154 0.717,2.018 0.432,2.602 m 0,-3.916 c 0,0 -0.147,0.438 -0.432,1.314 0,-0.876 -0.152,-1.46 -0.437,-1.752 0.577,0.292 0.869,0.438 0.869,0.438 m -1.301,13.047 v -1.3 c 0.577,0.57 0.577,1.008 0,1.3 m 0.869,0.876 c 0,0.279 0.219,0.651 0.651,1.088 0.438,0.425 0.505,0.797 0.218,1.088 v 0.864 c -0.292,0 -0.51,0.066 -0.65,0.225 -0.152,0.133 -0.079,0.358 0.213,0.65 0,0.279 0.219,0.651 0.657,1.088 0.431,0.426 0.497,0.797 0.212,1.089 v 1.301 1.738 c 0,1.448 0.146,2.456 0.439,3.04 0,0.584 0.066,1.447 0.218,2.615 0.139,1.154 0.498,2.455 1.088,3.916 -0.292,0 -0.729,-1.301 -1.306,-3.916 -0.584,-2.615 -0.871,-4.499 -0.871,-5.655 0,-1.168 -0.152,-2.11 -0.437,-2.827 -0.292,-0.729 -0.432,-1.525 -0.432,-2.389 0,-0.292 0.067,-0.73 0.219,-1.313 0.14,-0.585 -0.079,-1.155 -0.656,-1.739 0,-0.292 -0.147,-0.584 -0.432,-0.863 -0.292,-0.292 -0.292,-0.585 0,-0.876 z m -0.437,-2.615 c 0,-0.292 -0.213,-0.65 -0.651,-1.088 -0.438,-0.424 -0.511,-0.942 -0.219,-1.513 0,0 0.286,0.863 0.87,2.601 m -1.739,-30.872 c -0.292,-0.292 -0.292,-0.729 0,-1.314 0.285,0.293 0.285,0.73 0,1.314 m 1.307,10.433 v 3.477 c 0.869,2.031 1.009,3.345 0.432,3.915 -0.293,-0.57 -0.432,-1.446 -0.432,-2.601 0,-1.155 -0.152,-2.177 -0.438,-3.053 0,-0.57 -0.219,-1.526 -0.651,-2.827 -0.437,-1.301 -0.364,-2.389 0.22,-3.265 -0.293,-0.279 -0.438,-0.65 -0.438,-1.075 0,-0.438 -0.146,-0.796 -0.431,-1.089 l 0.431,-3.053 z m -1.089,12.183 c 0.14,1.156 0.359,2.018 0.651,2.602 -0.292,0.292 -0.584,-0.292 -0.869,-1.738 -0.292,-1.448 -0.431,-2.469 -0.431,-3.04 0.285,0.279 0.497,1.009 0.649,2.176 m -1.088,40.88 v -0.876 c 0.578,0 0.578,0.292 0,0.876 m -0.218,-54.802 c 0.145,0.875 0.072,1.3 -0.213,1.3 l 1.301,7.831 h -0.431 c -0.585,-0.278 -0.87,-1.884 -0.87,-4.778 -0.59,-2.894 -0.876,-4.924 -0.876,-6.092 0.577,0.292 0.942,0.863 1.089,1.739 m -1.089,-3.04 c -0.292,-0.584 -0.146,-1.022 0.438,-1.314 -0.292,0.292 -0.438,0.73 -0.438,1.314 m -0.431,54.79 h 0.431 v 0.438 l -0.431,-0.863 z m 0,-58.706 c -0.292,0 -0.438,-0.291 -0.438,-0.876 0.285,0 0.438,0.293 0.438,0.876 m -0.869,-10.87 v -2.614 c 0.577,1.46 0.577,2.322 0,2.614 m 0,4.341 c 0.285,0 0.431,-0.279 0.431,-0.863 z m 0,2.176 v -2.176 l 0.431,-0.863 c 0,1.447 -0.146,2.469 -0.431,3.039 m 0.65,1.526 c 0.145,0.439 0.066,0.797 -0.219,1.089 -0.292,0 -0.366,-0.225 -0.213,-0.65 0.139,-0.439 0.067,-0.796 -0.218,-1.088 0.285,0 0.504,0.212 0.65,0.649 m -13.266,97.86 c 0,0.132 0.146,0.212 0.438,0.212 0,-0.584 -0.153,-0.73 -0.438,-0.438 z m -3.478,-49.799 c 0,-0.292 -0.152,-0.438 -0.438,-0.438 0,0.279 0.146,0.438 0.438,0.438 m -15.223,12.609 v -1.301 c 0.292,0.279 0.292,0.717 0,1.301 m -4.566,-27.182 c 0.153,0.146 0.073,0.358 -0.22,0.65 -0.285,-0.584 -0.285,-1.022 0,-1.301 0,0.279 0.08,0.504 0.22,0.651 m -0.22,2.389 c -0.285,0 -0.43,-0.293 -0.43,-0.863 0.291,0 0.43,0.278 0.43,0.863 m -0.43,1.739 v -0.438 c 0.291,0 0.291,0.146 0,0.438 m 45.232,-68.712 c 0,0 -0.876,1.021 -2.614,3.039 -4.639,5.215 -6.955,11.029 -6.955,17.4 -0.292,2.907 -0.219,6.158 0.219,9.781 0.431,3.637 0.651,6.173 0.651,7.619 l 0.431,6.956 1.745,9.13 c 0.577,5.801 1.446,11.309 2.608,16.526 l 0.869,3.915 c 0,1.154 0.14,2.177 0.432,3.053 0.285,0.862 0.437,1.738 0.437,2.601 0,1.738 0.14,3.053 0.432,3.915 0,2.894 0.285,4.632 0.869,5.216 v 1.314 c -0.292,0.279 -0.43,0.651 -0.43,1.088 0,0.425 -0.154,0.651 -0.439,0.651 -0.292,0 -0.505,-0.159 -0.65,-0.438 -0.146,-0.292 -0.219,-0.584 -0.219,-0.876 -1.162,-1.447 -2.25,-2.973 -3.259,-4.565 -1.021,-1.594 -2.249,-3.252 -3.696,-5.004 -5.223,-8.694 -9.43,-15.078 -12.616,-19.126 -2.9,-3.77 -5.508,-6.743 -7.824,-8.92 -2.329,-2.177 -4.937,-2.827 -7.831,-1.964 -1.446,0 -2.893,1.023 -4.346,3.053 -2.323,1.738 -3.624,3.756 -3.916,6.092 -0.285,0.571 -0.438,1.447 -0.438,2.601 l 0.438,4.791 c 2.03,19.418 6.086,38.995 12.177,58.705 0.87,3.478 1.447,5.363 1.74,5.655 0.576,0.876 1.738,1.314 3.477,1.314 0.577,-0.292 1.738,-0.73 3.477,-1.314 1.746,-0.584 2.754,-1.447 3.046,-2.602 l 0.438,-1.314 c 0,-1.447 -0.438,-3.039 -1.307,-4.778 -6.378,-20.294 -10.731,-39.14 -13.047,-56.541 l 5.223,5.216 c 1.155,0.584 2.17,1.526 3.039,2.827 0.869,1.314 1.739,2.403 2.608,3.265 l 0.876,0.438 -0.876,-0.438 10.008,13.485 c 0,0.571 0.577,1.446 1.738,2.602 0.87,1.46 2.463,3.556 4.786,6.317 2.315,2.747 4.054,5.428 5.216,8.044 0.285,0.278 0.796,1.087 1.526,2.388 0.717,1.301 1.805,2.389 3.258,3.265 1.155,0.571 3.046,0.571 5.654,0 2.317,-0.876 3.623,-1.898 3.915,-3.052 0.286,-0.584 0.432,-1.301 0.432,-2.164 l -6.523,-50.449 -2.17,-17.838 c -0.292,-1.155 -0.584,-2.456 -0.87,-3.916 -0.292,-1.446 -0.438,-3.185 -0.438,-5.216 -0.292,-1.155 -0.431,-2.455 -0.431,-3.915 0,-1.447 -0.153,-2.747 -0.438,-3.915 l -0.432,-4.779 c 0.286,-1.155 0.432,-2.76 0.432,-4.791 0,-2.017 0.145,-3.624 0.438,-4.778 l 0.869,-0.876 c 0,0.292 0.139,0.437 0.431,0.437 4.64,3.2 9.424,8.694 14.355,16.525 5.215,8.707 9.782,17.613 13.697,26.744 3.916,9.146 8.767,21.236 14.573,36.327 0.286,0.571 0.578,1.222 0.869,1.951 0.286,0.717 0.578,1.527 0.87,2.39 0,0.584 0.14,0.876 0.431,0.876 0,0.862 0.147,1.593 0.439,2.177 l 0.869,1.738 c 0.578,1.739 1.228,3.252 1.958,4.566 0.723,1.3 1.227,2.535 1.519,3.689 l 0.869,1.74 v -0.425 c 0.578,2.309 1.308,4.048 2.177,5.216 2.894,8.11 4.785,14.056 5.654,17.825 -0.584,0.584 -0.431,1.314 0.439,2.177 -0.292,0.584 -0.439,1.738 -0.439,3.477 V 16.1 c 0,0.57 -0.292,1.739 -0.869,3.477 -0.584,0.571 -0.729,1.155 -0.438,1.739 1.162,0.571 1.746,0.571 1.746,0 0.285,0 0.497,-0.159 0.65,-0.438 0.139,-0.292 0.359,-0.438 0.651,-0.438 l 2.176,-0.863 2.176,-2.177 c 0,-1.167 0.14,-1.738 0.432,-1.738 L 0,14.786 c 0.285,-0.584 0.438,-1.885 0.438,-3.915 0.87,0.876 1.301,0.146 1.301,-2.177 0.285,-0.584 0.285,-1.301 0,-2.164 L 1.308,6.093 C 0.724,5.508 0.438,4.792 0.438,3.916 0.146,3.624 0,3.266 0,2.827 V 1.739 C -0.292,1.739 -0.431,1.593 -0.431,1.301 -0.146,1.009 0,0.584 0,0 0,-0.292 -0.146,-0.146 -0.431,0.438 -1.015,0.146 -1.301,-0.371 -1.301,-1.088 V -2.601 H 0 V -3.039 C 0,-3.915 -0.146,-4.645 -0.431,-5.216 -0.723,-5.8 -1.015,-6.384 -1.301,-6.955 l -1.745,-4.353 c 0,-1.739 -0.431,-3.331 -1.301,-4.778 0,-0.292 -0.152,-0.73 -0.437,-1.314 -0.292,-0.584 -0.584,-0.863 -0.869,-0.863 l 0.437,-1.3 c 0,-0.585 -0.219,-1.381 -0.657,-2.402 -0.431,-1.009 -0.796,-1.806 -1.081,-2.39 l -3.484,-7.393 v -1.738 c -0.584,-0.585 -0.87,-1.022 -0.87,-1.301 -0.584,-0.876 -0.87,-2.323 -0.87,-4.353 -0.291,-0.585 -0.722,-1.527 -1.301,-2.827 -0.589,-1.301 -1.021,-2.535 -1.306,-3.703 -0.292,0.292 -0.869,0 -1.739,-0.864 v -0.876 c 0.578,-0.292 0.578,-0.716 0,-1.3 l -5.655,-13.047 c -0.583,-1.739 -1.525,-3.982 -2.826,-6.743 -1.307,-2.747 -2.25,-5.003 -2.827,-6.742 l -1.308,-2.176 c -2.322,-6.956 -5.799,-14.919 -10.439,-23.918 l -6.524,-11.308 c -1.453,-2.602 -2.461,-4.194 -3.039,-4.778 -0.292,-0.292 -1.745,-1.315 -4.353,-3.053 -2.9,-2.018 -6.085,-2.747 -9.569,-2.163 -3.192,0.862 -4.779,1.301 -4.779,1.301"
             style="fill:#616466;fill-opacity:1;fill-rule:nonzero;stroke:none"
             id="path88" /></g><g
           id="g90"
           transform="translate(385.0225,215.3408)"><path
             d="m 0,0 h -0.397 z m -0.397,0 v -0.397 z m -0.398,-6.71 c 0,0 0.133,0.12 0.398,0.386 0.258,-0.266 0.258,-0.53 0,-0.783 -0.265,0.253 -0.398,0.397 -0.398,0.397 m 0,8.287 c 0.259,0 0.259,-0.144 0,-0.397 z m 0,0.386 c 0.259,0 0.259,-0.133 0,-0.386 z M 0.789,4.336 C 1.048,4.866 1.639,5.649 2.56,6.709 3.481,7.757 4.071,8.287 4.337,8.287 4.596,7.757 4.271,7.095 3.354,6.312 2.427,5.517 1.837,4.986 1.578,4.733 L 0.392,2.758 -0.795,1.963 C -1.06,1.963 -1.386,1.638 -1.776,0.987 -2.174,0.325 -2.638,0 -3.162,0 c 0.259,0.518 1.578,1.963 3.951,4.336 m -3.162,-14.997 c -0.53,-0.795 -0.921,-1.325 -1.181,-1.578 z m -1.578,-1.578 h 0.397 v -0.398 z m -1.379,7.3 c 0.127,0.132 0.198,0.06 0.198,-0.193 l -0.397,-0.397 c 0,0.253 0.06,0.457 0.199,0.59 m -0.398,-8.48 c -0.132,0 -0.199,0.12 -0.199,0.385 0.259,0 0.398,-0.133 0.398,-0.385 z m 2.174,12.623 c -0.264,-0.529 -1.186,-1.578 -2.764,-3.155 -0.788,-1.578 -1.578,-2.24 -2.367,-1.976 2.367,3.686 4.078,5.397 5.131,5.131 m -4.739,-7.492 -0.392,-0.795 c -0.265,0.253 -0.138,0.518 0.392,0.795 m -1.181,-9.48 c 0,0 0.06,0.061 0.193,0.193 0.133,0.133 0.198,0.337 0.198,0.602 v 0.784 l -0.788,-1.181 c 0.259,-0.266 0.397,-0.398 0.397,-0.398 m -1.186,7.504 c 0,-0.795 -0.392,-1.192 -1.187,-1.192 0.795,0.795 1.187,1.192 1.187,1.192 m -7.108,-7.106 c 0,-0.266 -0.066,-0.398 -0.192,-0.398 -0.139,0 -0.338,0.132 -0.597,0.398 z m -1.18,-0.795 -0.789,-1.181 c 0,0.265 0.259,0.651 0.789,1.181 m -0.789,-13.419 h -0.789 c 0.259,0.265 0.524,0.265 0.789,0 m -0.789,11.841 c -0.265,-0.53 -0.662,-0.783 -1.186,-0.783 0.259,0.517 0.656,0.783 1.186,0.783 m -1.975,-0.783 c 0.259,-0.531 0.126,-0.928 -0.397,-1.193 0,0.531 0.131,0.928 0.397,1.193 M -23.29,-33.56 v -0.385 z m -0.789,14.612 c 0,0 1.181,0.65 3.553,1.975 0.789,1.048 2.228,2.362 4.342,3.939 1.314,1.578 2.759,3.023 4.337,4.348 0.259,0.518 0.921,1.048 1.976,1.579 0,0.253 0.132,0.517 0.397,0.783 0.259,0.264 0.524,0.397 0.789,0.397 -1.842,-2.638 -3.029,-4.084 -3.553,-4.337 -0.531,-0.264 -1.32,-0.926 -2.367,-1.975 -0.531,-0.265 -1.32,-0.928 -2.374,-1.976 l -1.969,-2.373 -1.578,-1.18 c 0,-0.53 -0.138,-0.783 -0.398,-0.783 -0.264,-0.265 -0.59,-0.397 -0.987,-0.397 -0.392,0 -0.729,-0.133 -0.987,-0.398 -0.531,-0.795 -0.922,-1.18 -1.181,-1.18 -0.266,-0.265 -0.662,-0.398 -1.187,-0.398 0.789,1.314 1.187,1.976 1.187,1.976 m -3.951,-3.951 c 0.795,0.53 1.445,1.18 1.975,1.975 0.259,-0.53 0.133,-1.059 -0.391,-1.578 -0.531,-0.53 -1.06,-0.795 -1.584,-0.795 z m -9.866,-16.973 c 0.259,0 0.524,0.133 0.79,0.398 l -0.79,0.397 c 0,-0.265 -0.132,-0.397 -0.391,-0.397 -0.272,0 -0.398,-0.132 -0.398,-0.398 z m -11.443,53.688 c 2.366,2.626 4.071,4.469 5.125,5.517 4.476,4.999 7.366,9.865 8.686,14.611 0.258,1.048 0.258,1.771 0,2.169 -0.266,0.397 -0.658,0.325 -1.181,-0.194 h -0.397 c -2.109,-1.589 -3.554,-2.902 -4.343,-3.95 -3.156,-3.157 -5.524,-5.794 -7.101,-7.902 -1.325,-1.578 -3.03,-4.204 -5.132,-7.89 -0.53,-1.048 -1.053,-2.361 -1.584,-3.951 -0.264,-0.53 -0.458,-1.241 -0.589,-2.168 -0.133,-0.928 -0.333,-1.639 -0.591,-2.168 2.367,1.313 4.734,3.288 7.107,5.926 m -24.079,-31.981 c -0.524,-0.53 -0.657,-1.048 -0.397,-1.578 0,0.795 0.137,1.312 0.397,1.578 m 13.816,-28.814 c 0,0 -1.452,0.928 -4.342,2.771 l -3.952,3.156 c -0.524,0.518 -0.789,0.915 -0.789,1.18 l -1.969,2.373 c -0.524,0.519 -0.921,1.313 -1.187,2.361 -0.259,1.048 -0.523,1.843 -0.789,2.373 -0.788,1.313 -1.577,3.156 -2.366,5.529 -0.26,1.578 -0.398,3.674 -0.398,6.312 0,3.421 0.265,6.047 0.79,7.89 0.789,3.686 1.318,5.927 1.577,6.71 1.054,5.794 3.426,11.973 7.107,18.55 2.102,3.686 5.258,8.42 9.474,14.214 0.524,0.795 0.916,1.18 1.18,1.18 l 2.373,3.169 c 1.579,2.095 2.626,3.408 3.157,3.938 l 4.733,4.734 c 1.843,1.313 3.554,1.976 5.132,1.976 0.524,0.265 1.312,0.397 2.373,0.397 3.415,-0.53 5.92,-1.71 7.498,-3.553 1.048,-1.048 1.578,-1.976 1.578,-2.759 V 34.33 c 0,-1.578 -0.139,-2.759 -0.397,-3.541 l -1.578,-3.952 c -0.53,-1.06 -1.379,-2.903 -2.566,-5.529 -1.181,-2.638 -2.433,-4.866 -3.746,-6.709 -2.638,-3.951 -5.27,-7.24 -7.896,-9.866 -2.108,-2.637 -5.27,-5.263 -9.474,-7.902 l -5.131,-3.155 c -0.53,-0.266 -1.253,-0.458 -2.169,-0.591 -0.927,-0.132 -1.517,-0.457 -1.776,-0.987 -0.531,-0.531 -1.187,-2.362 -1.976,-5.517 -0.265,-0.796 -0.59,-1.65 -0.988,-2.566 -0.392,-0.928 -0.59,-1.783 -0.59,-2.566 0,-1.325 -0.133,-2.71 -0.397,-4.156 -0.259,-1.445 -0.392,-2.83 -0.392,-4.144 0,-0.782 0.265,-2.228 0.789,-4.336 0.265,-1.578 0.789,-3.023 1.578,-4.336 0.524,-1.06 1.187,-1.783 1.976,-2.18 0.789,-0.386 1.312,-0.591 1.578,-0.591 h 0.39 c 2.374,-0.53 4.211,-0.53 5.53,0 3.156,0 6.577,0.916 10.262,2.771 2.892,1.578 5.921,3.409 9.077,5.517 l 3.951,3.553 c 0.524,0.266 1.115,0.724 1.771,1.386 0.657,0.65 1.246,0.987 1.777,0.987 0.258,0 0.523,-0.072 0.789,-0.205 0.259,-0.132 0.524,0.073 0.795,0.602 h 0.391 c 0.789,0 1.837,0.651 3.157,1.964 0.258,-0.53 0.198,-0.915 -0.194,-1.18 -0.397,-0.265 -0.728,-0.531 -0.987,-0.784 0.259,-0.529 2.493,0.976 6.709,4.53 4.204,3.553 7.366,6.384 9.474,8.492 0.789,0.253 1.313,0.783 1.579,1.578 0.523,0.518 0.788,0.915 0.788,1.181 0.524,0 0.789,0.132 0.789,0.397 1.313,0.795 2.764,2.373 4.342,4.734 0.259,0.53 0.651,1.048 1.187,1.578 0.523,0.53 1.048,1.313 1.578,2.373 l 1.97,2.758 c 0,0.265 0.132,0.795 0.396,1.579 0.26,0.795 0.525,1.313 0.79,1.578 C 4.993,6.83 5.125,6.312 5.125,5.517 5.125,4.203 4.071,2.096 1.97,-0.796 l -3.157,-3.553 c -1.319,-1.313 -1.842,-2.361 -1.578,-3.156 0.259,0 0.326,0.061 0.2,0.193 -0.139,0.132 -0.073,0.336 0.192,0.602 1.048,0 1.313,-0.397 0.789,-1.192 -0.265,-0.531 -0.656,-1.048 -1.181,-1.578 -0.529,-0.531 -0.662,-1.048 -0.397,-1.579 -0.53,0.266 -0.987,0 -1.379,-0.782 -0.397,-0.796 -0.73,-1.193 -0.988,-1.193 v 0.795 l -0.398,-0.795 c -1.053,-1.048 -1.71,-1.976 -1.969,-2.758 0.259,0 0.59,0.132 0.988,0.396 0.391,0.254 0.717,0.519 0.981,0.785 0,-0.531 -0.132,-0.928 -0.391,-1.181 -0.265,-0.266 -0.53,-0.53 -0.788,-0.796 -0.531,-0.529 -1.055,-1.312 -1.579,-2.36 l -4.74,-4.735 -4.343,-3.95 c -0.264,-0.265 -0.589,-0.591 -0.981,-0.988 -0.397,-0.398 -0.597,-0.723 -0.597,-0.988 0,-0.265 0.061,-0.457 0.2,-0.59 0.131,-0.133 -0.067,-0.337 -0.591,-0.59 v 0.397 c 0,0.253 -0.139,0.386 -0.397,0.386 -0.265,0 -1.054,-0.663 -2.367,-1.975 -1.578,-1.579 -2.632,-2.892 -3.156,-3.94 0,0.253 -0.265,0.253 -0.789,0 -0.789,0 -1.187,-0.397 -1.187,-1.192 h -0.789 c -0.265,0 -0.265,-0.061 0,-0.193 0.259,-0.132 0.259,-0.338 0,-0.59 -0.265,-0.265 -0.53,-0.337 -0.789,-0.193 -0.265,0.12 -0.529,0.193 -0.789,0.193 l -2.367,-1.578 c 0,-0.265 0.06,-0.53 0.193,-0.796 0.132,-0.264 0.067,-0.384 -0.193,-0.384 0.524,-0.531 0.391,-0.796 -0.398,-0.796 -0.264,-0.265 -0.529,-0.265 -0.789,0 h -1.578 l -1.577,-1.577 h 0.789 c -0.53,-0.531 -1.253,-0.916 -2.175,-1.181 -0.921,-0.265 -1.517,-0.397 -1.776,-0.397 -2.108,-1.048 -3.687,-1.711 -4.734,-1.976 -3.945,-0.795 -7.373,-1.048 -10.263,-0.795 -3.155,0.265 -4.734,0.397 -4.734,0.397"
             style="fill:#616466;fill-opacity:1;fill-rule:nonzero;stroke:none"
             id="path92" /></g><g
           id="g94"
           transform="translate(134.4297,266.1113)"><path
             d="m 0,0 c -0.212,1.023 0.21,1.819 1.274,2.397 0.537,0.286 1.177,0.508 1.939,0.666 0.754,0.156 1.394,0.377 1.93,0.668 l 0.563,0.116 c 0.572,0.118 1.11,0.136 1.621,0.067 0.503,-0.076 0.944,-0.07 1.325,0.009 0.572,0.119 1.197,0.154 1.898,0.124 0.694,-0.036 1.334,0.011 1.898,0.127 1.169,0.063 2.34,0.126 3.509,0.193 1.169,0.063 2.366,0.041 3.571,-0.064 0.825,-0.188 1.993,-0.121 3.509,0.193 0.754,0.155 1.438,0.208 2.036,0.156 0.607,-0.054 1.11,-0.129 1.527,-0.222 1.169,0.067 2.339,0.13 3.509,0.193 1.169,0.066 2.339,0.129 3.509,0.192 l 1.143,0.236 c 1.135,0.235 2.322,0.216 3.562,-0.061 1.135,0.234 1.768,0.011 1.909,-0.672 C 40.267,4.15 40.181,3.863 39.967,3.46 39.751,3.062 39.571,2.756 39.416,2.544 39.029,1.577 38.259,0.974 37.125,0.739 36.935,0.7 36.813,0.585 36.754,0.394 36.693,0.206 36.572,0.092 36.382,0.052 l -0.69,-0.945 C 35,-1.39 34.152,-1.565 33.138,-1.421 32.791,-1.668 32.419,-1.79 32.03,-1.785 c -0.4,0.012 -0.789,-0.028 -1.161,-0.105 -3.293,-0.323 -5.745,-0.386 -7.367,-0.188 -0.562,-0.116 -1.447,-0.12 -2.651,-0.015 -0.191,-0.039 -0.495,-0.012 -0.91,0.076 -0.417,0.093 -0.789,0.017 -1.135,-0.234 -0.035,0.172 -0.287,0.209 -0.763,0.111 -0.468,-0.097 -0.823,-0.081 -1.04,0.049 -0.416,0.093 -1.101,0.041 -2.045,-0.154 -0.416,0.093 -1.431,0.238 -3.043,0.437 L 10.494,-2.101 9.923,-2.219 C 9.324,-2.164 8.57,-2.1 7.66,-2.02 6.759,-1.941 6.022,-1.959 5.459,-2.076 c -0.19,-0.039 -0.893,-0.005 -2.098,0.1 -0.753,-0.156 -1.36,-0.103 -1.803,0.161 -0.19,-0.04 -0.512,0.073 -0.963,0.334 0.155,0.211 0.163,0.392 0.042,0.542 -0.14,0.15 -0.219,0.313 -0.255,0.484 l -0.329,0.197 z"
             style="fill:#616466;fill-opacity:1;fill-rule:nonzero;stroke:none"
             id="path96" /></g><g
           id="g98"
           transform="translate(328.5576,263.4614)"><path
             d="M 0,0 C -0.235,1.071 0.175,1.907 1.238,2.518 1.775,2.82 2.418,3.055 3.186,3.224 3.944,3.39 4.587,3.626 5.123,3.932 l 0.566,0.125 c 0.576,0.126 1.12,0.147 1.638,0.076 0.511,-0.076 0.956,-0.069 1.34,0.016 0.576,0.126 1.207,0.166 1.917,0.138 0.702,-0.035 1.349,0.017 1.915,0.142 1.182,0.071 2.364,0.142 3.545,0.217 1.182,0.071 2.392,0.054 3.612,-0.051 0.837,-0.193 2.019,-0.118 3.544,0.217 0.759,0.167 1.449,0.224 2.055,0.173 0.615,-0.054 1.126,-0.13 1.549,-0.226 1.18,0.075 2.362,0.146 3.545,0.217 1.18,0.075 2.362,0.146 3.544,0.217 l 1.15,0.253 c 1.143,0.251 2.344,0.236 3.603,-0.049 1.142,0.251 1.788,0.02 1.944,-0.696 C 40.629,4.525 40.549,4.225 40.34,3.802 40.13,3.383 39.954,3.061 39.802,2.839 39.431,1.823 38.665,1.188 37.523,0.937 37.331,0.896 37.212,0.775 37.155,0.574 37.098,0.377 36.979,0.256 36.786,0.214 l -0.678,-0.993 c -0.688,-0.524 -1.543,-0.712 -2.572,-0.565 -0.345,-0.26 -0.719,-0.389 -1.112,-0.385 -0.404,0.009 -0.797,-0.034 -1.172,-0.116 -3.322,-0.353 -5.801,-0.43 -7.444,-0.229 -0.568,-0.125 -1.461,-0.133 -2.682,-0.028 -0.191,-0.042 -0.499,-0.015 -0.921,0.076 -0.423,0.096 -0.798,0.014 -1.143,-0.25 -0.039,0.179 -0.293,0.218 -0.774,0.112 -0.471,-0.103 -0.83,-0.087 -1.052,0.048 -0.423,0.095 -1.114,0.038 -2.064,-0.171 -0.424,0.096 -1.452,0.243 -3.087,0.445 l -1.43,-0.314 -0.576,-0.126 C 9.473,-2.227 8.71,-2.163 7.787,-2.083 6.875,-2.004 6.13,-2.027 5.563,-2.151 5.371,-2.193 4.66,-2.161 3.44,-2.056 2.682,-2.223 2.066,-2.169 1.613,-1.896 1.422,-1.937 1.095,-1.821 0.633,-1.55 c 0.152,0.222 0.156,0.412 0.03,0.569 -0.144,0.156 -0.227,0.327 -0.267,0.506 L 0.06,-0.27 Z"
             style="fill:#616466;fill-opacity:1;fill-rule:nonzero;stroke:none"
             id="path100" /></g></g></g></g></svg>
